<?xml version="1.0" encoding="UTF-8"?>
<svg id="Layer_2" data-name="Layer 2" xmlns="http://www.w3.org/2000/svg" viewBox="0 0 267.106 261.513">
  <defs>
    <style>
      .cls-1 {
        fill: none;
        stroke: #000;
        stroke-miterlimit: 10;
        stroke-width: 5px;
      }
    </style>
  </defs>
  <g id="Diamond">
    <g>
      <polyline class="cls-1" points="134.19 82.016 202.534 82.016 238.831 135.073 134.19 257.663 134.19 257.663 29.549 135.073 65.846 82.016 134.19 82.016"/>
      <line class="cls-1" x1="29.549" y1="135.073" x2="238.831" y2="135.073"/>
      <path class="cls-1" d="M202.534,82.016l-34.313,53.057-33.284-51.887c-.699-1.089-2.291-1.087-2.987.004l-33.065,51.882-33.039-53.057"/>
      <line class="cls-1" x1="134.19" y1="257.663" x2="98.885" y2="135.073"/>
      <line class="cls-1" x1="168.221" y1="135.073" x2="133.44" y2="256.784"/>
      <line class="cls-1" x1="16.287" y1="138.555" y2="138.555"/>
      <line class="cls-1" x1="267.106" y1="138.555" x2="250.819" y2="138.555"/>
      <line class="cls-1" x1="38.158" y1="40.368" x2="61.89" y2="64.101"/>
      <line class="cls-1" x1="133.44" x2="133.44" y2="42.695"/>
      <line class="cls-1" x1="133.44" y1="62.705" x2="133.44" y2="52.235"/>
      <line class="cls-1" x1="207.077" y1="64.101" x2="229.181" y2="41.997"/>
    </g>
  </g>
</svg>