<?xml version="1.0" encoding="UTF-8"?>
<svg id="Layer_2" data-name="Layer 2" xmlns="http://www.w3.org/2000/svg" viewBox="0 0 249.752 246.856">
  <defs>
    <style>
      .cls-1 {
        fill: none;
        stroke: #000;
        stroke-miterlimit: 10;
        stroke-width: 5px;
      }
    </style>
  </defs>
  <g id="Revenue-Coin">
    <g>
      <polyline class="cls-1" points="247.252 2.5 109.51 120.786 52.938 101.518 6.204 140.053"/>
      <polyline class="cls-1" points="207.17 2.5 247.252 2.5 247.252 42.582"/>
      <ellipse class="cls-1" cx="211.86" cy="128.276" rx="35.392" ry="15.681"/>
      <path class="cls-1" d="M246.131,153.701c-3.937,6.758-17.788,11.75-34.271,11.75s-30.335-4.992-34.271-11.751"/>
      <path class="cls-1" d="M246.131,173.151c-3.937,6.758-17.788,11.75-34.271,11.75s-30.335-4.992-34.271-11.751"/>
      <path class="cls-1" d="M246.131,192.602c-3.937,6.758-17.788,11.75-34.271,11.75s-30.335-4.992-34.271-11.751"/>
      <path class="cls-1" d="M246.131,212.053c-3.937,6.758-17.788,11.75-34.271,11.75s-30.335-4.992-34.271-11.751"/>
      <path class="cls-1" d="M246.131,231.504c-3.937,6.758-17.788,11.75-34.271,11.75s-30.335-4.992-34.271-11.751"/>
      <ellipse class="cls-1" cx="123.851" cy="168.279" rx="35.392" ry="15.681"/>
      <path class="cls-1" d="M158.122,193.704c-3.937,6.758-17.788,11.75-34.271,11.75s-30.335-4.992-34.271-11.751"/>
      <path class="cls-1" d="M158.122,213.154c-3.937,6.758-17.788,11.75-34.271,11.75s-30.335-4.992-34.271-11.751"/>
      <path class="cls-1" d="M158.122,232.605c-3.937,6.758-17.788,11.75-34.271,11.75s-30.335-4.992-34.271-11.751"/>
      <ellipse class="cls-1" cx="37.892" cy="207.181" rx="35.392" ry="15.681"/>
      <path class="cls-1" d="M72.163,232.605c-3.937,6.758-17.788,11.75-34.271,11.75s-30.335-4.992-34.271-11.751"/>
    </g>
  </g>
</svg>