<?xml version="1.0" encoding="UTF-8"?>
<svg id="Layer_2" data-name="Layer 2" xmlns="http://www.w3.org/2000/svg" viewBox="0 0 276.362 223.336">
  <defs>
    <style>
      .cls-1 {
        fill: none;
        stroke: #000;
        stroke-miterlimit: 10;
        stroke-width: 5.263px;
      }
    </style>
  </defs>
  <g id="Time">
    <g>
      <line class="cls-1" x1="5.547" y1="47.444" x2="18.028" y2="47.444"/>
      <line class="cls-1" x1="40.91" y1="47.444" x2="90.142" y2="47.444"/>
      <line class="cls-1" x1="18.028" y1="88.354" x2="65.526" y2="88.354"/>
      <line class="cls-1" y1="135.505" x2="22.882" y2="135.505"/>
      <line class="cls-1" x1="41.777" y1="135.505" x2="76.967" y2="135.505"/>
      <line class="cls-1" x1="41.777" y1="183.478" x2="90.142" y2="183.478"/>
      <line class="cls-1" x1="163.642" y1="98.109" x2="163.642" y2="38.43"/>
      <line class="cls-1" x1="163.642" y1="137.585" x2="163.642" y2="126.838"/>
      <line class="cls-1" x1="177.2" y1="120.693" x2="215.646" y2="144.519"/>
      <line class="cls-1" x1="140.76" y1="98.109" x2="151.848" y2="104.981"/>
      <path class="cls-1" d="M96.318,26.73C115.02,11.655,138.803,2.631,164.694,2.631c60.219,0,109.037,48.817,109.037,109.037s-48.817,109.037-109.037,109.037c-22.123,0-42.707-6.588-59.897-17.91"/>
      <circle class="cls-1" cx="163.642" cy="111.668" r="13.559"/>
      <path class="cls-1" d="M124.528,66.084c-12.826,11.016-20.95,27.351-20.95,45.584,0,33.172,26.892,60.064,60.064,60.064"/>
      <polyline class="cls-1" points="96.318 80.033 124.528 66.084 126.198 98.109"/>
      <line class="cls-1" x1="163.642" y1="14.161" x2="163.642" y2="25.948"/>
      <line class="cls-1" x1="163.642" y1="199.644" x2="163.642" y2="211.432"/>
      <line class="cls-1" x1="114.505" y1="27.271" x2="120.377" y2="37.492"/>
      <line class="cls-1" x1="206.906" y1="188.101" x2="212.778" y2="198.322"/>
      <line class="cls-1" x1="238.947" y1="156.06" x2="249.168" y2="161.932"/>
      <line class="cls-1" x1="250.49" y1="112.795" x2="262.277" y2="112.795"/>
      <line class="cls-1" x1="249.06" y1="63.474" x2="238.852" y2="69.369"/>
      <line class="cls-1" x1="213.136" y1="27.478" x2="207.221" y2="37.674"/>
      <line class="cls-1" x1="120.062" y1="187.919" x2="114.147" y2="198.115"/>
    </g>
  </g>
</svg>